<?xml version="1.0" encoding="UTF-8"?>
<svg xmlns="http://www.w3.org/2000/svg" xmlns:xlink="http://www.w3.org/1999/xlink" version="1.1" viewBox="0 0 841.89 595.28">
  <!-- Generator: Adobe Illustrator 30.4.0, SVG Export Plug-In . SVG Version: 2.1.4 Build 226)  -->
  <defs>
    <style>
      .st0 {
        font-family: Poppins-SemiBold, Poppins;
        font-size: 11px;
        font-weight: 600;
      }

      .st1, .st2, .st3, .st4, .st5, .st6, .st7 {
        fill: #0e2c54;
      }

      .st1, .st2, .st8, .st9, .st10, .st11, .st5, .st12, .st6, .st7 {
        font-weight: 700;
      }

      .st1, .st2, .st8, .st10, .st11, .st12, .st6, .st7 {
        font-family: Poppins-ExtraBold, Poppins;
      }

      .st1, .st5 {
        font-size: 86.49px;
      }

      .st13 {
        fill: #004d89;
      }

      .st14 {
        fill: url(#linear-gradient2);
      }

      .st15 {
        fill: url(#linear-gradient1);
      }

      .st16 {
        fill: url(#linear-gradient9);
      }

      .st17 {
        fill: url(#linear-gradient3);
      }

      .st18 {
        fill: url(#linear-gradient6);
      }

      .st19 {
        fill: url(#linear-gradient8);
      }

      .st20 {
        fill: url(#linear-gradient7);
      }

      .st21 {
        fill: url(#linear-gradient5);
      }

      .st22 {
        fill: url(#linear-gradient4);
      }

      .st23 {
        fill: url(#linear-gradient18);
      }

      .st24 {
        fill: url(#linear-gradient13);
      }

      .st25 {
        fill: url(#linear-gradient12);
      }

      .st26 {
        fill: url(#linear-gradient15);
      }

      .st27 {
        fill: url(#linear-gradient16);
      }

      .st28 {
        fill: url(#linear-gradient11);
      }

      .st29 {
        fill: url(#linear-gradient10);
      }

      .st30 {
        fill: url(#linear-gradient17);
      }

      .st31 {
        fill: url(#linear-gradient14);
      }

      .st32 {
        fill: url(#linear-gradient19);
      }

      .st33 {
        fill: url(#linear-gradient21);
      }

      .st34 {
        fill: url(#linear-gradient20);
      }

      .st35 {
        fill: url(#linear-gradient);
      }

      .st8 {
        font-size: 18.27px;
      }

      .st8, .st36, .st11, .st12, .st37, .st38 {
        fill: #e76500;
      }

      .st39 {
        letter-spacing: 0em;
      }

      .st39, .st40, .st12 {
        font-size: 26.48px;
      }

      .st4 {
        font-family: Montserrat-Black, Montserrat;
        font-size: 73.85px;
        font-weight: 800;
      }

      .st41 {
        fill: #0a3e66;
      }

      .st9 {
        font-family: Poppins-Bold, Poppins;
        font-size: 17px;
      }

      .st42 {
        fill: #004a7e;
      }

      .st43 {
        fill: #ff7829;
      }

      .st10 {
        font-size: 47.71px;
      }

      .st44 {
        stroke: #545f70;
      }

      .st44, .st45, .st46, .st47 {
        fill: none;
        stroke-miterlimit: 10;
      }

      .st48 {
        fill: #0b3f77;
      }

      .st49 {
        fill: #06416b;
      }

      .st50 {
        font-size: 24.48px;
        letter-spacing: 0em;
      }

      .st51 {
        letter-spacing: 0em;
      }

      .st52 {
        fill: #0e78aa;
      }

      .st45, .st46 {
        stroke: #000;
      }

      .st11 {
        font-size: 16.41px;
      }

      .st46 {
        stroke-width: 2px;
      }

      .st5 {
        font-family: TimesNewRomanPS-BoldMT, 'Times New Roman';
      }

      .st6 {
        font-size: 50.42px;
      }

      .st53 {
        fill: #ff982c;
      }

      .st54 {
        fill: #024b70;
      }

      .st47 {
        stroke: #0e2c54;
        stroke-width: 4px;
      }

      .st55 {
        display: none;
      }

      .st7 {
        font-size: 72.76px;
      }

      .st37 {
        font-size: 202.58px;
      }

      .st37, .st38 {
        font-family: TimesNewRomanPSMT, 'Times New Roman';
      }

      .st38 {
        font-size: 216.36px;
      }
    </style>
    <linearGradient id="linear-gradient" x1="317.38" y1="178.24" x2="348.94" y2="178.24" gradientUnits="userSpaceOnUse">
      <stop offset="0" stop-color="#0d8ecc"/>
      <stop offset="1" stop-color="#06416b"/>
    </linearGradient>
    <linearGradient id="linear-gradient1" x1="323.24" y1="217" x2="332.09" y2="217" gradientUnits="userSpaceOnUse">
      <stop offset="0" stop-color="#fd942a"/>
      <stop offset=".26" stop-color="#fd8729"/>
      <stop offset=".62" stop-color="#fe7b29"/>
      <stop offset="1" stop-color="#ff7829"/>
    </linearGradient>
    <linearGradient id="linear-gradient2" x1="426.99" y1="166.43" x2="513.84" y2="166.43" gradientUnits="userSpaceOnUse">
      <stop offset="0" stop-color="#fd942a"/>
      <stop offset=".26" stop-color="#fd8729"/>
      <stop offset=".62" stop-color="#fe7b29"/>
      <stop offset="1" stop-color="#ff7829"/>
    </linearGradient>
    <linearGradient id="linear-gradient3" x1="399.79" y1="148.64" x2="403.39" y2="148.64" xlink:href="#linear-gradient1"/>
    <linearGradient id="linear-gradient4" x1="386.36" y1="156.62" x2="389.96" y2="156.62" xlink:href="#linear-gradient1"/>
    <linearGradient id="linear-gradient5" x1="443.14" y1="208.26" x2="351.81" y2="270.64" gradientUnits="userSpaceOnUse">
      <stop offset="0" stop-color="#0d8ecc"/>
      <stop offset="1" stop-color="#06416b"/>
    </linearGradient>
    <linearGradient id="linear-gradient6" x1="403.41" y1="320.49" x2="407.87" y2="320.49" xlink:href="#linear-gradient1"/>
    <linearGradient id="linear-gradient7" x1="411.98" y1="130.38" x2="435.14" y2="130.38" gradientUnits="userSpaceOnUse">
      <stop offset="0" stop-color="#fd942a"/>
      <stop offset=".26" stop-color="#fd8729"/>
      <stop offset=".62" stop-color="#fe7b29"/>
      <stop offset="1" stop-color="#ff7829"/>
    </linearGradient>
    <linearGradient id="linear-gradient8" x1="306.98" y1="196.92" x2="411.98" y2="196.92" xlink:href="#linear-gradient"/>
    <linearGradient id="linear-gradient9" x1="361.88" y1="178.12" x2="411.98" y2="178.12" xlink:href="#linear-gradient5"/>
    <linearGradient id="linear-gradient10" x1="339.01" y1="223.47" x2="411.98" y2="223.47" xlink:href="#linear-gradient5"/>
    <linearGradient id="linear-gradient11" x1="448.84" y1="266.68" x2="382.44" y2="271.02" xlink:href="#linear-gradient1"/>
    <linearGradient id="linear-gradient12" x1="497.13" y1="263.19" x2="360.13" y2="296.81" xlink:href="#linear-gradient1"/>
    <linearGradient id="linear-gradient13" x1="342.15" y1="214.39" x2="331" y2="217.13" xlink:href="#linear-gradient1"/>
    <linearGradient id="linear-gradient14" x1="394.3" y1="168.47" x2="383.15" y2="171.2" xlink:href="#linear-gradient1"/>
    <linearGradient id="linear-gradient15" x1="408.17" y1="161.18" x2="397.01" y2="163.92" xlink:href="#linear-gradient1"/>
    <linearGradient id="linear-gradient16" x1="411.07" y1="306.49" x2="399.91" y2="309.22" xlink:href="#linear-gradient1"/>
    <linearGradient id="linear-gradient17" x1="357.82" y1="172.64" x2="350.68" y2="174.61" xlink:href="#linear-gradient"/>
    <linearGradient id="linear-gradient18" x1="366.64" y1="288.76" x2="384.38" y2="288.76" xlink:href="#linear-gradient1"/>
    <linearGradient id="linear-gradient19" x1="389.02" y1="312.31" x2="394.45" y2="312.31" xlink:href="#linear-gradient1"/>
    <linearGradient id="linear-gradient20" x1="392.86" y1="299.58" x2="381.7" y2="302.32" xlink:href="#linear-gradient1"/>
    <linearGradient id="linear-gradient21" x1="432.89" y1="290.19" x2="461.66" y2="290.19" gradientUnits="userSpaceOnUse">
      <stop offset="0" stop-color="#0a3e66"/>
      <stop offset="1" stop-color="#0e78aa"/>
    </linearGradient>
  </defs>
  <g id="Layer_1" class="st55">
    <text class="st1" transform="translate(227.24 155.78)"><tspan x="0" y="0">edu</tspan></text>
    <text class="st12" transform="translate(448.78 181.52) scale(1.14 1)"><tspan x="0" y="0">SKILLS</tspan></text>
    <text class="st2" transform="translate(449.54 435.48) scale(1.14 1)"><tspan class="st40" x="0" y="0">SK</tspan><tspan class="st50" x="35.64" y="0">i</tspan><tspan class="st39" x="43.18" y="0">LLS</tspan></text>
    <text class="st5" transform="translate(423.65 155.78)"><tspan x="0" y="0">ech</tspan></text>
    <text class="st38" transform="translate(384.61 188.17) scale(1.01 1)"><tspan x="0" y="0">t</tspan></text>
    <text class="st4" transform="translate(229.31 412.5)"><tspan x="0" y="0">EDU</tspan></text>
    <text class="st5" transform="translate(425.72 409.74)"><tspan x="0" y="0">ech</tspan></text>
    <text class="st37" transform="translate(384.95 435.67) scale(1.01 1)"><tspan x="0" y="0">t</tspan></text>
    <rect class="st45" x="189.11" width="396.7" height="529.12"/>
  </g>
  <g id="Layer_3" class="st55">
    <g>
      <path class="st36" d="M157.55,119.01l31.35-8.37-4.34-15.78s-.53-3.71-5.08-2.65-36.65,9.85-36.65,9.85l9.32,35.38,9.85-2.33,6.57,7.2s2.75,2.89,3.71-.99l.95-9.29,19.81-5.19-2.75-10.8-3.5.95,1.91,7.2-19.17,4.98-.53,7.94-5.62-6.57-8.57,2.44-7.52-28.39,33.68-9,3.6,12.39-27.86,7.41.85,3.6Z"/>
      <polygon class="st36" points="159.56 106.62 179.26 101.11 180.43 104.82 160.73 110.22 159.56 106.62"/>
      <polygon class="st36" points="158.71 123.2 179.92 117.69 181.17 121.4 159.97 126.8 158.71 123.2"/>
    </g>
    <g>
      <path class="st36" d="M703.81,110.53l31.35-8.37-4.34-15.78s-.53-3.71-5.08-2.65c-4.55,1.06-36.65,9.85-36.65,9.85l9.32,35.38,9.85-2.33,6.57,7.2s2.75,2.89,3.71-.99l.95-9.29,19.81-5.19-2.75-10.8-3.5.95,1.91,7.2-19.17,4.98-.53,7.94-5.62-6.57-8.57,2.44-7.52-28.39,33.68-9,3.6,12.39-27.86,7.41.85,3.6Z"/>
      <polygon class="st36" points="705.82 98.13 725.52 92.63 726.69 96.33 706.98 101.74 705.82 98.13"/>
      <polygon class="st36" points="704.97 114.71 726.17 109.2 727.43 112.91 706.22 118.31 704.97 114.71"/>
    </g>
    <g>
      <path class="st48" d="M484.61,121.88l4.08,13.96-24.06,14.39s-5.37,4.08-3.01,9.24,7.52,3.22,11.39,1.07c3.87-2.15,19.12-12.03,19.12-12.03l3.87,12.46-22.77,15.56s-4.51,3.99-1.5,9.14c3.01,5.16,10.31.64,11.6,0,1.29-.64,16.54-11.6,16.54-11.6l3.65,11.82-34.37,23.2s-9.88,1.07-13.32-2.58-22.13-63.59-22.13-63.59c0,0,6.44,6.87,19.33-.86,12.89-7.73,31.58-20.19,31.58-20.19Z"/>
      <path class="st3" d="M433.69,142.93l-7.09,13.32,19.76,50.27s6.23,10.74,22.77,2.58c0,0-6.44.21-10.1-6.02s-25.35-60.15-25.35-60.15Z"/>
      <path class="st48" d="M446.8,141.43l31.58-29v7.52s-26.85,19.98-31.58,21.48Z"/>
      <polygon class="st48" points="441.86 141.43 465.92 109.2 469.14 115.86 441.86 141.43"/>
      <path class="st48" d="M439.49,140.35l9.67-31.15,4.3,10.1s-11.39,20.19-13.96,21.05Z"/>
    </g>
    <path class="st36" d="M302.25,391.89s-.79,11.29-10.23,15.48c-9.45,4.2-15.83.18-17.41-1.57,0,0,20.73-12.25,22.57-13.65,1.84-1.4,5.68-6.29,1.31-11.89-4.37-5.6-14.08-9.27-23.88-2.19-9.8,7.09-13.64,18.98-5.68,30.26,7.96,11.28,37.17,7.26,33.32-16.45ZM284.06,380.61c9.8-1.4,8.57,6.91,7.26,8.83-1.32,1.92-19.68,12.07-19.68,12.07-3.5-8.05,2.63-19.5,12.42-20.9Z"/>
    <path class="st3" d="M265.43,383.93l-3.41-5.86h-3.15l.35,5.07s1.22,1.22.44,2.19l1.49,4.02-3.59.44v-4.29s-1.14-1.57.44-2.45l-.17-4.99-5.95.79,14.96-17.58,22.91-2.01-6.56,7.52,2.71,5.42s-14.26,1.05-20.47,11.72Z"/>
    <path class="st3" d="M62.28,158.14l-3.73-6.42h-3.45l.38,5.55s1.34,1.34.48,2.39l1.63,4.4-3.93.48v-4.69s-1.24-1.72.48-2.68l-.19-5.46-6.51.86,16.37-19.25,25.09-2.2-7.18,8.24,2.97,5.94s-15.61,1.15-22.41,12.83Z"/>
    <text class="st8" transform="translate(231.47 206.02) scale(1.14 1)"><tspan x="0" y="0">SKILLS</tspan></text>
    <g>
      <path class="st3" d="M100.64,170.39h-23.82c.13,1.97.67,3.44,1.64,4.4s2.19,1.44,3.69,1.44c2.1,0,3.6-.94,4.49-2.83h13.42c-.56,2.48-1.64,4.7-3.24,6.65-1.6,1.95-3.63,3.48-6.07,4.59-2.44,1.11-5.14,1.67-8.09,1.67-3.55,0-6.71-.75-9.47-2.25-2.76-1.5-4.92-3.64-6.48-6.42-1.56-2.78-2.34-6.06-2.34-9.82s.77-7.03,2.31-9.79c1.54-2.76,3.69-4.89,6.45-6.39,2.76-1.5,5.94-2.25,9.54-2.25s6.7.73,9.44,2.18c2.74,1.46,4.88,3.54,6.42,6.26,1.54,2.72,2.31,5.92,2.31,9.6,0,.99-.06,1.97-.19,2.95ZM87.99,164.29c0-1.54-.51-2.75-1.54-3.63-1.03-.88-2.31-1.32-3.85-1.32s-2.8.42-3.79,1.25c-.99.83-1.63,2.07-1.93,3.69h11.11Z"/>
      <path class="st3" d="M105.94,158.06c1.35-2.78,3.2-4.92,5.55-6.42,2.35-1.5,4.97-2.25,7.83-2.25,2.31,0,4.38.48,6.2,1.44,1.82.96,3.24,2.28,4.27,3.95v-16.44h12.65v47.51h-12.65v-5.01c-.99,1.67-2.38,3-4.17,3.98-1.8.99-3.92,1.48-6.36,1.48-2.87,0-5.47-.75-7.8-2.25-2.33-1.5-4.17-3.65-5.52-6.45-1.35-2.8-2.02-6.07-2.02-9.79s.67-6.98,2.02-9.76ZM127.96,162.37c-1.26-1.33-2.82-1.99-4.66-1.99s-3.45.65-4.69,1.96c-1.24,1.31-1.86,3.14-1.86,5.49s.62,4.14,1.86,5.49c1.24,1.35,2.8,2.02,4.69,2.02s3.39-.66,4.66-1.99c1.26-1.33,1.89-3.17,1.89-5.52s-.63-4.13-1.89-5.46Z"/>
      <path class="st3" d="M186.48,149.85v36.02h-12.65v-5.14c-1.07,1.63-2.55,2.94-4.43,3.95-1.88,1.01-4.04,1.51-6.48,1.51-4.2,0-7.5-1.38-9.92-4.14-2.42-2.76-3.63-6.52-3.63-11.27v-20.93h12.52v19.33c0,2.05.55,3.67,1.64,4.85,1.09,1.18,2.54,1.77,4.33,1.77s3.3-.59,4.37-1.77c1.07-1.18,1.61-2.79,1.61-4.85v-19.33h12.65Z"/>
    </g>
    <g>
      <path class="st3" d="M235.62,170.16h-16.08c.19,3.89,1.22,6.96,3.1,9.22,1.44,1.73,3.18,2.6,5.2,2.6,1.25,0,2.39-.35,3.42-1.05,1.02-.7,2.12-1.96,3.29-3.78l1.07.69c-1.59,3.24-3.34,5.53-5.27,6.88-1.92,1.35-4.15,2.02-6.68,2.02-4.35,0-7.64-1.67-9.88-5.02-1.8-2.7-2.7-6.04-2.7-10.03,0-4.89,1.32-8.78,3.97-11.68,2.64-2.9,5.74-4.34,9.3-4.34,2.97,0,5.54,1.22,7.73,3.65,2.18,2.44,3.36,6.05,3.53,10.83ZM227.91,168.06c0-3.36-.18-5.67-.55-6.93-.37-1.25-.94-2.21-1.71-2.85-.44-.38-1.02-.56-1.76-.56-1.09,0-1.98.53-2.67,1.6-1.23,1.86-1.85,4.41-1.85,7.65v1.1h8.53Z"/>
      <path class="st3" d="M263.21,178.31l.97.75c-1.38,2.59-3.1,4.52-5.16,5.78-2.06,1.26-4.25,1.9-6.57,1.9-3.91,0-7.03-1.47-9.37-4.42-2.34-2.95-3.51-6.49-3.51-10.63s1.07-7.5,3.2-10.53c2.57-3.66,6.11-5.49,10.63-5.49,3.03,0,5.44.76,7.23,2.29,1.79,1.53,2.68,3.23,2.68,5.11,0,1.19-.36,2.14-1.08,2.85-.72.71-1.67,1.07-2.84,1.07-1.23,0-2.25-.41-3.06-1.22-.8-.81-1.3-2.27-1.49-4.36-.13-1.32-.43-2.24-.91-2.76-.48-.52-1.05-.78-1.69-.78-1,0-1.86.53-2.57,1.6-1.09,1.61-1.63,4.08-1.63,7.4,0,2.76.44,5.4,1.32,7.92.88,2.52,2.08,4.39,3.61,5.63,1.15.9,2.51,1.35,4.08,1.35,1.02,0,2-.24,2.92-.72.92-.48,2.01-1.39,3.26-2.73Z"/>
      <path class="st3" d="M279.77,143.35v16.96c1.61-1.69,3.08-2.89,4.42-3.59,1.34-.7,2.73-1.05,4.17-1.05,1.84,0,3.41.52,4.72,1.57,1.31,1.05,2.17,2.27,2.6,3.68.43,1.41.64,3.79.64,7.13v11.44c0,2.24.21,3.63.63,4.19.42.55,1.26.9,2.54,1.05v1.13h-14.86v-1.13c1.04-.15,1.83-.56,2.35-1.25.38-.54.56-1.87.56-3.98v-13.07c0-2.42-.09-3.94-.28-4.56-.19-.62-.51-1.1-.96-1.44-.45-.34-.96-.52-1.52-.52-.84,0-1.65.29-2.45.86s-1.65,1.58-2.57,3.03v15.71c0,2.09.16,3.4.47,3.92.4.71,1.21,1.15,2.45,1.32v1.13h-14.86v-1.13c1.23-.12,2.11-.52,2.63-1.19.36-.46.53-1.81.53-4.04v-29.78c0-2.22-.2-3.59-.61-4.14-.41-.54-1.26-.9-2.56-1.07v-1.16h11.94Z"/>
    </g>
    <path class="st3" d="M205.89,114.47v23.61h17.02v5.49h-17.02v46.59c0,4.65.68,7.79,2.03,9.41,1.35,1.62,3.09,2.43,5.21,2.43,1.75,0,3.44-.54,5.09-1.61,1.64-1.07,2.91-2.65,3.82-4.75h3.1c-1.86,5.12-4.48,8.98-7.87,11.57-3.39,2.59-6.89,3.88-10.5,3.88-2.44,0-4.82-.67-7.16-2-2.33-1.33-4.06-3.24-5.17-5.73-1.11-2.48-1.67-6.31-1.67-11.49v-48.31h-11.53v-2.59c2.91-1.15,5.9-3.1,8.94-5.84,3.05-2.75,5.76-6,8.15-9.76,1.22-1.99,2.91-5.62,5.09-10.9h2.46Z"/>
    <text class="st6" transform="translate(305.97 411.22)"><tspan x="0" y="0">DUTECH</tspan></text>
    <text class="st7" transform="translate(503.51 180.96)"><tspan x="0" y="0" xml:space="preserve">du  ech</tspan></text>
    <path class="st3" d="M692.16,121.88l2.24,9.73h-71.44v46.81h-14.26v-46.81h-13.53v-9.73h96.99Z"/>
    <text class="st11" transform="translate(360.77 430.93) scale(1.14 1)"><tspan x="0" y="0">SKILLS</tspan></text>
    <line class="st47" x1="269.59" y1="425.47" x2="358.35" y2="425.47"/>
    <line class="st47" x1="425.92" y1="425.47" x2="510.03" y2="425.47"/>
    <text class="st11" transform="translate(611.47 200.64) scale(1.14 1)"><tspan x="0" y="0">SKILLS</tspan></text>
    <line class="st47" x1="517.06" y1="195.18" x2="605.82" y2="195.18"/>
    <line class="st47" x1="679.48" y1="195.18" x2="768.64" y2="195.18"/>
    <rect class="st44" x="12.78" width="815.25" height="526.86"/>
  </g>
  <g id="Layer_4">
    <path class="st35" d="M320.02,179.1s23.76-4.13,27.74-5.95l1.19,4.06s-24.3,5.67-29.42,6.09.49-4.2.49-4.2Z"/>
    <path class="st15" d="M323.24,215.76s7.42-.38,8.31-.84.42,3.46.42,3.46c0,0-7.52.75-7.8.75s-.93-3.36-.93-3.36Z"/>
    <path class="st14" d="M462.43,192.62l-5.88,1.4s-8.82-7.42-29.56-7.7v-46.93s8.12-.14,9.81,0c0,0,.7-8.54,2.66-10.51h2.1s2.52,3.92,2.38,11.07c0,0,18.21,2.52,26.82,17.51,0,0,9.53-19.33,43.07-18.07v47.21s-24.02-1.26-42.37,17.37c0,0,5.46-20.03,36.7-22.55v-36.56s-28.3-.14-37.75,20.87c0,0-7.21-21.29-37.75-20.87v36.14s17.65.7,29.77,11.63Z"/>
    <path class="st54" d="M431.05,111.24l39.08-15.27,39.64,15.27-39.36,15.27-26.75-10.51s-2.1,3.08-2.1,7.56c0,0,3.92,4.62-1.12,6.72,0,0-5.04-2.24-1.12-6.72,0,0-.28-6.16,1.68-8.26l-9.95-4.06Z"/>
    <path class="st54" d="M448.84,120.76v13.59s12.05-.7,21.57,10.51c0,0,7-9.95,21.71-10.37v-13.73s-15.69,5.46-21.71,9.53c0,0-14.82-8.42-21.57-9.53Z"/>
    <rect class="st17" x="399.79" y="139.81" width="3.61" height="17.65"/>
    <rect class="st22" x="386.36" y="147.8" width="3.61" height="17.65"/>
    <path class="st13" d="M417.68,147.8h5.88v42.02s16.53-1.68,30.4,5.46c0,0-5.46.98-6.3,1.96,0,0-10.51-4.76-29.98-1.4v-48.05Z"/>
    <path class="st13" d="M516.99,147.8h5.18v48.89s-26.33-7-50.85,9.39c0,0,15.69-19.47,45.81-15.69,0,0-.28-42.58-.14-42.58Z"/>
    <path class="st41" d="M424.59,304.95s-7.98,7.63-8.1,8.64,0,14.65,0,14.65l4.46-2.24-.43-11.39,6.5-6.75-2.43-2.9Z"/>
    <path class="st49" d="M439.67,230.11c0,1.6-1.3,2.9-2.9,2.9s-2.9-1.3-2.9-2.9,1.3-2.9,2.9-2.9,2.9,1.3,2.9,2.9Z"/>
    <path class="st49" d="M467.29,196.92l-7.47,43.28-10.65-9.15-40.78,44.45-25.52-23.06-36.98,42.77-6.42-8.13,6.8-7.29c1.01.91,2.34,1.45,3.8,1.45,3.17,0,5.74-2.57,5.74-5.74,0-.91-.21-1.77-.6-2.54l27.66-30.96,25,22.11,26.27-28.9c.79.41,1.68.64,2.63.64,3.17,0,5.74-2.57,5.74-5.74,0-1.61-.67-3.07-1.74-4.11l26.52-29.08Z"/>
    <path class="st49" d="M352.97,275.5c0,1.6-1.3,2.9-2.9,2.9-.71,0-1.36-.25-1.87-.68-.63-.53-1.03-1.33-1.03-2.22,0-1.6,1.3-2.9,2.9-2.9.81,0,1.55.34,2.08.88.5.53.82,1.23.82,2.02Z"/>
    <path class="st21" d="M467.29,196.92l-26.52,29.08c-1.03-1.01-2.44-1.63-4-1.63-3.17,0-5.74,2.57-5.74,5.74,0,.56.08,1.09.23,1.6-.14.26-.23.41-.23.41l-23.16,26.2-25.56-22.47-30.09,34.33c-.66-.27-1.39-.42-2.15-.42-3.17,0-5.74,2.57-5.74,5.74,0,1.71.75,3.25,1.94,4.29l-6.8,7.29-5.8-8.24,47.87-54.47,25.42,22.93,26.91-30.3-9.54-8.36,42.96-11.72Z"/>
    <polygon class="st18" points="403.41 313.21 403.41 326.84 407.87 328.24 407.87 312.74 403.41 313.21"/>
    <path class="st20" d="M411.98,118.99v16.53s6.82,5.14,9.9,6.26v-7.75l13.26.47s-16.9-9.9-23.16-15.5Z"/>
    <path class="st19" d="M331.48,274.85l9.15-10.65s-15.13-25.03-17.74-59.39c0,0,31.75-5.79,36.42-7.56v-12.98s-32.68,7.66-37.91,7.66c0,0-.98-15.08-.7-23.35,0,0,46.23-3.46,91.28-33.06v-16.53s-37.12,31.94-104.36,37.17c0,0-6.82,70.79,23.86,118.69Z"/>
    <path class="st16" d="M375.61,159.98s-2.52,16.95,11.35,21.85,23.86-5.32,25.03-9.32v18.28s-3.6-4.48-6.68-2.94-5.46,2.1-5.46,2.1c0,0-.84,4.62-.7,6.3h-10.09s.84-5.6-2.52-7.28-5.54-4.34-11.11,1.26l-7.52-6.58s4.48-3.22,2.66-7.28-.56-6.58-8.68-6.58v-5.18l13.73-4.62Z"/>
    <path class="st29" d="M398.58,217s-15.13-13.59-31.94-1.4c-16.81,12.19-8.82,28.86-8.82,28.86l-7,7.98s-1.82-4.34-2.38-6.16-6.58-3.08-8.54-3.08,0-11.71,0-11.71c0,0,6.72-2.43,8.12-2.43,0,0,1.4-6.58,3.36-8.12s-4.9-7-4.48-7.98,5.32-6.58,6.58-7.84,2.24-.7,3.08,0,5.04,4.34,7.98,1.82,5.88-2.66,6.3-2.94.14-5.88.42-7.7,12.05-2.1,12.61-1.4.98,7,4.06,7.14,7.28.98,8.12,1.96,5.18-4.48,6.58-4.06,7.05,3.92,9.34,7c0,0-10.46-.14-10.88,1.12s.84,8.26-2.52,8.96Z"/>
    <path class="st53" d="M385.55,221.76l11.77,10.37s8.08-6.86,20.36-3.64l7.66-7.7s-3.08-1.68-6.44-1.68c0,0,.42-6.58,0-7.42s-14.01-1.26-14.15,0,.14,6.72-.98,7.14-6.44,1.87-7.56,2.68-6.3-4.5-8.12-3.24-2.52,3.5-2.52,3.5Z"/>
    <path class="st28" d="M383.87,259.86l3.36,3.64s5.88,21.57,31.1,16.67,19.75-30.96,19.75-30.96l11.21-11.49.84,1.26s-3.22,2.66-3.64,4.9.28,7.7,1.96,8.54,6.44.7,6.86,2.52-.42,12.05-1.54,12.47-6.58-1.54-8.4.98-4.62,6.3-3.92,8.26,3.92,4.76,2.52,7-7.14,7.84-9.11,6.16-4.76-4.9-7.7-3.36-7.03,1.18-7.51,3.67-.62,7.59-2.02,7.49-11.35.46-12.19-.94.7-6.16-2.38-7.42-7.7-4.2-9.95-2.66-3.78,3.64-5.74,2.66-8.96-6.02-6.58-9.39,1.27-6.3-.49-8.54-3.29-3.65-3.29-3.65l6.86-7.84Z"/>
    <path class="st25" d="M358.24,288.86l-8.82,10.37s21.48,27.74,62.57,45.67c0,0,65-23.07,91.89-95.16h-26.66s3.32-25.26,4.3-27.64,17.09-8.68,17.23-5.46-3.64,21.01-5.46,23.67c0,0,13.17.84,14.57.14s7.56-36.28,7-38.66-37.4.7-45.39,14.57c0,0-6.16,42.44-7.98,46.23,0,0,22.83-.7,22.69.14s-20.54,42.72-72.19,66.54c0,0-26.43-9.34-53.74-40.39Z"/>
    <path class="st24" d="M336.57,210.02c-3.17,0-5.74,2.57-5.74,5.74s2.57,5.74,5.74,5.74,5.74-2.57,5.74-5.74-2.57-5.74-5.74-5.74ZM336.57,218.66c-1.6,0-2.9-1.3-2.9-2.9s1.3-2.9,2.9-2.9,2.9,1.3,2.9,2.9-1.3,2.9-2.9,2.9Z"/>
    <path class="st31" d="M388.72,164.1c-3.17,0-5.74,2.57-5.74,5.74s2.57,5.74,5.74,5.74,5.74-2.57,5.74-5.74-2.57-5.74-5.74-5.74ZM388.72,172.74c-1.6,0-2.9-1.3-2.9-2.9s1.3-2.9,2.9-2.9,2.9,1.3,2.9,2.9-1.3,2.9-2.9,2.9Z"/>
    <path class="st26" d="M402.59,156.81c-3.17,0-5.74,2.57-5.74,5.74s2.57,5.74,5.74,5.74,5.74-2.57,5.74-5.74-2.57-5.74-5.74-5.74ZM402.59,165.45c-1.6,0-2.9-1.3-2.9-2.9s1.3-2.9,2.9-2.9,2.9,1.3,2.9,2.9-1.3,2.9-2.9,2.9Z"/>
    <path class="st27" d="M405.49,302.11c-3.17,0-5.74,2.57-5.74,5.74s2.57,5.74,5.74,5.74,5.74-2.57,5.74-5.74-2.57-5.74-5.74-5.74ZM405.49,310.75c-1.6,0-2.9-1.3-2.9-2.9s1.3-2.9,2.9-2.9,2.9,1.3,2.9,2.9-1.3,2.9-2.9,2.9Z"/>
    <path class="st41" d="M429.3,297.07c-3.17,0-5.74,2.57-5.74,5.74s2.57,5.74,5.74,5.74,5.74-2.57,5.74-5.74-2.57-5.74-5.74-5.74ZM429.3,305.71c-1.6,0-2.9-1.3-2.9-2.9s1.3-2.9,2.9-2.9,2.9,1.3,2.9,2.9-1.3,2.9-2.9,2.9Z"/>
    <path class="st52" d="M463.52,269.76c-3.17,0-5.74,2.57-5.74,5.74s2.57,5.74,5.74,5.74,5.74-2.57,5.74-5.74-2.57-5.74-5.74-5.74ZM463.52,278.4c-1.6,0-2.9-1.3-2.9-2.9s1.3-2.9,2.9-2.9,2.9,1.3,2.9,2.9-1.3,2.9-2.9,2.9Z"/>
    <path class="st30" d="M352.77,168.29c-3.17,0-5.74,2.57-5.74,5.74s2.57,5.74,5.74,5.74,5.74-2.57,5.74-5.74-2.57-5.74-5.74-5.74ZM352.77,176.93c-1.6,0-2.9-1.3-2.9-2.9s1.3-2.9,2.9-2.9,2.9,1.3,2.9,2.9-1.3,2.9-2.9,2.9Z"/>
    <path class="st23" d="M366.87,278.84s-1.03,5.79,1.21,8.12,13.91,11.72,13.91,11.72l2.38-2.01s-14.05-11.49-14.33-13.17-.28-4.67-.28-4.67h-2.89Z"/>
    <path class="st32" d="M389.02,306.42s1.57.81,1.67,2.96,0,9.06,0,9.06l3.74,2.33v-10.46s.48-4.05-2.7-6.46c0,0-2.13,1.39-2.7,2.57Z"/>
    <path class="st34" d="M387.28,295.21c-3.17,0-5.74,2.57-5.74,5.74s2.57,5.74,5.74,5.74,5.74-2.57,5.74-5.74-2.57-5.74-5.74-5.74ZM387.28,303.85c-1.6,0-2.9-1.3-2.9-2.9s1.3-2.9,2.9-2.9,2.9,1.3,2.9,2.9-1.3,2.9-2.9,2.9Z"/>
    <path class="st33" d="M433.97,299.47s3.88.59,6.59-1.8,18.86-20.14,18.86-20.14l2.24,2.71-20.54,21.48s-1.97,1.34-6.07,1.09-1.08-3.34-1.08-3.34Z"/>
    <text class="st10" transform="translate(221.12 394.67)"><tspan class="st42" x="0" y="0">EDUTECH</tspan><tspan class="st51" x="221.76" y="0"> </tspan><tspan class="st43" x="230.88" y="0">SKILLS</tspan></text>
    <text class="st0" transform="translate(247.21 438.06)"><tspan x="0" y="0">Elevate your IT skills with our Online Training platform Today!</tspan></text>
    <text class="st9" transform="translate(234.21 415.64)"><tspan x="0" y="0">IT &amp; Management Training | Online &amp; Offline</tspan></text>
    <line class="st46" x1="247.21" y1="423.95" x2="583.95" y2="423.95"/>
  </g>
</svg>